<?xml version="1.0" encoding="UTF-8"?>
<svg id="Livello_1" data-name="Livello 1" xmlns="http://www.w3.org/2000/svg" viewBox="0 0 408.65 391.67">
  <path d="M148.86,120c5.6-.14,10.43-1.99,14.35-5.99,2.45-2.5,2.92-5.35,.81-8.25-1.95-2.68-5.32-2.9-8.48-.77-5.97,4.02-7.25,4.02-13.13,.03-3.18-2.17-6.47-1.94-8.49,.71-2.22,2.91-1.72,5.69,.73,8.22,3.89,4.03,8.73,5.87,14.22,6.05Zm110.82,171.23c5.64-.1,10.73-2.05,14.64-6.48,2.21-2.51,2.38-5.38,.08-7.93-2.27-2.51-5.23-2.94-7.83-.77-4.71,3.94-9.06,4.14-13.86,.12-2.74-2.3-6.06-1.72-8.15,.78-2.01,2.41-1.79,5.72,.65,8.26,3.88,4.04,8.71,5.9,14.47,6.02ZM112.38,106.45c0-1.46,.12-2.92-.02-4.36-.35-3.44-2.86-5.81-5.95-5.79-3.1,.02-5.54,2.4-5.89,5.86-.14,1.44-.06,2.91-.06,4.36,0,6.4,1.92,9.39,6.02,9.36,4.08-.03,5.95-2.99,5.9-9.44Zm98.62,170.65c.1,1.79,.09,3.25,.27,4.68,.43,3.4,2.44,5.23,5.84,5.21,3.2-.02,5.37-1.73,5.63-4.95,.26-3.26,.28-6.6-.12-9.84-.37-3-2.64-4.52-5.63-4.49-2.99,.03-5,1.62-5.59,4.6-.33,1.67-.3,3.41-.4,4.79Zm96.93,.49s.05,0,.08,0c0-1.32,.1-2.65-.02-3.96-.33-3.71-2.78-6.05-6.12-5.96-3.18,.09-5.52,2.37-5.74,5.92-.17,2.76-.24,5.58,.1,8.31,.39,3.08,2.34,5.02,5.6,5.11,3.43,.09,5.44-1.81,6.05-5.07,.26-1.4,.04-2.9,.04-4.35ZM197.5,106.24c-.1-1.72-.12-3.18-.28-4.62-.35-3.28-2.45-5.09-5.51-5.2-3.26-.12-5.71,1.61-5.97,5.07-.25,3.27-.27,6.61,.15,9.85,.38,3.02,2.78,4.53,5.69,4.46,2.9-.07,5.01-1.67,5.54-4.7,.29-1.68,.28-3.42,.38-4.86Z" style="fill: #fff;"/>
  <path d="M408.65,286.06c-1.01,4.93-1.77,9.93-3.08,14.78-4.87,18-15.11,32.65-28.64,45.19-1.74,1.61-3.54,3.18-5.43,4.88,5.51,7.07,12.38,11.96,19.96,15.9,4.61,2.4,9.22,4.7,8.71,11-.53,6.55-5.7,7.98-10.78,9.48-21.03,6.2-41.93,6.62-61.61-3.93-7.01-3.76-12.73-3.68-20.04-1.9-41.33,10.04-82.02,7.76-121.71-8.05-4.4-1.75-6.03-4.84-4.61-8.3,1.38-3.37,4.69-4.47,9.14-2.7,26.79,10.67,54.57,14.61,83.27,12.47,14.1-1.05,27.96-3.45,41.42-7.84,4.03-1.32,7.25-.7,10.78,1.69,17.51,11.83,36.64,12.86,57.71,7.82-1.94-1.28-3.14-2.1-4.37-2.88-7.92-5.08-14.92-11.13-20.12-19.06-3.02-4.61-2.68-7.17,1.68-10.64,9.66-7.68,18.03-16.44,24.68-26.91,14.81-23.33,14.39-53.97-1-76.9-15.17-22.61-36.68-36.74-61.71-45.77-37.93-13.69-76.56-14.57-115.3-3.82-24.21,6.72-45.95,18.32-63.22,37-16.67,18.03-25.01,39.08-20.67,63.92,3.19,18.27,12.92,33.03,26.36,45.37,5.37,4.92,11.47,9.04,17.23,13.54,3.95,3.09,4.49,7.78,.73,9.92-1.73,.99-5.01,1.29-6.56,.29-22.92-14.73-40.94-33.64-48.17-60.69-6.91-25.85-1.04-49.49,14.4-70.94,3.15-4.38,6.83-8.39,10.51-12.87-6.54-.73-12.87-1.08-19.06-2.21-8.87-1.62-17.62-3.92-26.48-5.65-1.86-.36-4.3-.15-5.88,.8-23.19,13.96-47.4,13.79-72.22,5.45-3.74-1.25-5.93-4.01-6.23-7.99-.33-4.35,1.8-7.37,5.58-9.29,7.99-4.07,15.53-8.74,21.49-15.6,.43-.49,.85-1,1.09-1.27-4.6-4.9-9.26-9.57-13.59-14.53C10.25,151.32,2.06,134.78,.34,115.38c-2.03-22.92,4.98-43.1,19.18-60.78C40.56,28.4,68.8,13.66,100.85,6c44.45-10.62,87.88-7.4,129.75,11.74,3.5,1.6,6.88,3.47,10.24,5.35,3.88,2.17,5.05,5.38,3.31,8.54-1.74,3.16-5.11,4.05-9.02,1.88-16.68-9.23-34.43-15.43-53.2-18.5-41.23-6.73-80.87-2.12-117.98,17.98-18.84,10.2-34.54,23.94-44.25,43.49-11.56,23.29-10.2,46.22,2.78,68.53,6.23,10.71,14.81,19.4,24.43,27.13,5.31,4.27,5.57,6.47,1.71,12.13-4.95,7.25-11.48,12.87-18.76,17.66-1.42,.93-2.88,1.8-4.33,2.7l.03,1.41c7.25,.73,14.5,2.04,21.75,2.08,13.34,.07,25.59-3.82,36.73-11.43,2.04-1.39,5.71-1.71,8.17-.98,18.1,5.39,36.53,8.21,55.39,8.49,3.63,.05,6.52-.82,9.53-3,15.04-10.86,31.88-17.97,49.7-22.84,13.77-3.76,27.79-5.99,42.07-6.62,1.37-.06,3.02-.42,4.03-1.26,16.31-13.54,28.42-29.78,32.03-51.24,3.24-19.25-1.48-36.78-12.63-52.44-4.74-6.66-10.99-12.23-16.25-18.55-1.54-1.85-3-4.67-2.79-6.88,.44-4.45,6.01-5.99,9.67-2.81,17.34,15.08,29.92,33.18,33.76,56.27,4.56,27.37-4.3,50.8-22.05,71.38-1.38,1.6-2.84,3.13-4.75,5.23,1.62,.2,2.68,.39,3.75,.47,31.98,2.4,61.97,10.95,88.63,29.31,19.88,13.69,35.37,31.01,42.56,54.59,1.73,5.68,2.53,11.64,3.76,17.47v12.78Z"/>
  <path d="M148.86,120c-5.49-.18-10.33-2.02-14.22-6.05-2.44-2.53-2.94-5.31-.73-8.22,2.02-2.65,5.31-2.88,8.49-.71,5.88,4,7.15,4,13.13-.03,3.16-2.13,6.53-1.91,8.48,.77,2.11,2.9,1.64,5.75-.81,8.25-3.91,3.99-8.75,5.85-14.35,5.99Z"/>
  <path d="M259.68,291.23c-5.75-.12-10.58-1.98-14.47-6.02-2.44-2.54-2.66-5.85-.65-8.26,2.08-2.5,5.41-3.07,8.15-.78,4.8,4.02,9.14,3.82,13.86-.12,2.6-2.17,5.56-1.73,7.83,.77,2.3,2.54,2.14,5.42-.08,7.93-3.91,4.43-9,6.38-14.64,6.48Z"/>
  <path d="M112.38,106.45c.05,6.45-1.82,9.41-5.9,9.44-4.1,.03-6.02-2.95-6.02-9.36,0-1.46-.08-2.92,.06-4.36,.34-3.47,2.78-5.84,5.89-5.86,3.09-.02,5.6,2.35,5.95,5.79,.15,1.44,.02,2.91,.02,4.36Z"/>
  <path d="M211,277.1c.11-1.38,.07-3.12,.4-4.79,.59-2.98,2.6-4.57,5.59-4.6,2.99-.03,5.26,1.49,5.63,4.49,.4,3.24,.38,6.58,.12,9.84-.26,3.22-2.43,4.93-5.63,4.95-3.4,.02-5.41-1.82-5.84-5.21-.18-1.44-.18-2.9-.27-4.68Z"/>
  <path d="M307.94,277.59c0,1.45,.22,2.95-.04,4.35-.61,3.26-2.61,5.16-6.05,5.07-3.26-.09-5.21-2.03-5.6-5.11-.35-2.73-.27-5.55-.1-8.31,.22-3.55,2.56-5.82,5.74-5.92,3.34-.1,5.79,2.24,6.12,5.96,.12,1.31,.02,2.64,.02,3.96-.03,0-.05,0-.08,0Z"/>
  <path d="M197.5,106.24c-.11,1.45-.09,3.18-.38,4.86-.53,3.04-2.64,4.63-5.54,4.7-2.91,.07-5.3-1.44-5.69-4.46-.41-3.24-.4-6.59-.15-9.85,.26-3.46,2.72-5.2,5.97-5.07,3.06,.12,5.16,1.93,5.51,5.2,.16,1.44,.18,2.9,.28,4.62Z"/>
</svg>